<?xml version="1.0" encoding="UTF-8"?>
<svg width="360px" height="283px" viewBox="0 0 360 283" version="1.1" xmlns="http://www.w3.org/2000/svg" xmlns:xlink="http://www.w3.org/1999/xlink">
    <!-- Generator: Sketch 61 (89581) - https://sketch.com -->
    <title>ill_carScreenNotificatoin</title>
    <desc>Created with Sketch.</desc>
    <defs>
        <rect id="path-1" x="0" y="0" width="359.04" height="282.24"></rect>
        <linearGradient x1="100.007151%" y1="50.0033212%" x2="1.50390168e-12%" y2="50.0033212%" id="linearGradient-3">
            <stop stop-color="#202124" offset="0%"></stop>
            <stop stop-color="#202124" offset="9%"></stop>
            <stop stop-color="#202124" stop-opacity="0" offset="100%"></stop>
        </linearGradient>
        <linearGradient x1="100.007151%" y1="50.0033212%" x2="1.50390168e-12%" y2="50.0033212%" id="linearGradient-4">
            <stop stop-color="#202124" offset="0%"></stop>
            <stop stop-color="#202124" offset="9%"></stop>
            <stop stop-color="#202124" stop-opacity="0" offset="100%"></stop>
        </linearGradient>
    </defs>
    <g id="ill_carScreenNotificatoin" stroke="none" stroke-width="1" fill="none" fill-rule="evenodd">
        <g id="Group-6">
            <g id="Group">
                <g id="Group-4">
                    <mask id="mask-2" fill="white">
                        <use xlink:href="#path-1"></use>
                    </mask>
                    <use id="Mask" fill="#202124" xlink:href="#path-1"></use>
                    <g opacity="0.6" mask="url(#mask-2)">
                        <g transform="translate(-83.520000, 35.520000)">
                            <g id="Group-2" opacity="0.6" transform="translate(0.000000, 29.937600)">
                                <path d="M234.995683,18.6652237 C208.066934,18.6652237 186.551589,0 129.624421,0 C72.6972525,0 51.1819077,18.6652237 24.2531585,18.6652237 L0,18.6652237 L0,122.472 L449.064,122.472 L449.064,18.6652237 L234.995683,18.6652237 Z" id="Path" fill="#4D5256" fill-rule="nonzero"></path>
                                <path d="M449.064,122.664 L449.064,34.6205891 L234.982048,34.6205891 C208.054861,34.6205891 186.540765,6.5424 129.6169,6.5424 C72.6930343,6.5424 51.2135043,34.6205891 24.2517512,34.6205891 L7.09405867e-13,34.6205891 L7.09405867e-13,122.622749 L449.064,122.664 Z" id="Path" fill="#2E3234" fill-rule="nonzero"></path>
                                <polygon id="Path" fill="url(#linearGradient-3)" fill-rule="nonzero" points="447.95311 18.144 335.664 18.144 335.664 122.472 449.064 122.472 449.064 18.144"></polygon>
                            </g>
                            <g id="Group-3" transform="translate(35.380800, 0.000000)">
                                <path d="M175.928902,152.395837 C197.253922,116.148765 191.430979,70.1932478 161.728949,40.327749 C148.817383,36.4602473 133.536849,32.4069404 112.894967,30.8448 C144.266992,38.5506066 167.601363,64.6865126 171.558087,96.5510389 C170.905272,96.2061927 170.205174,95.9581177 169.480045,95.8146996 C162.781824,94.5071813 151.068595,92.4564419 136.182889,90.8874199 C136.14772,90.6051207 136.087452,90.3264709 136.002792,90.0547371 L135.961231,89.9033403 C135.948222,89.8519307 135.932029,89.8013687 135.912743,89.7519434 C135.841655,89.5443813 135.756015,89.3420233 135.656451,89.1463559 L135.59411,89.0362491 C135.476285,88.7965531 135.339635,88.5664519 135.185429,88.3480816 L135.136941,88.2723831 C134.972758,88.0547415 134.794599,87.8478607 134.603577,87.6530323 L134.485821,87.5429255 C134.285469,87.3518054 134.070051,87.1769119 133.841628,87.0199182 L133.77236,86.9717464 C133.5505,86.8258431 133.319093,86.6948005 133.07968,86.5794909 L132.94807,86.5175558 C132.691452,86.4061843 132.427649,86.3119259 132.158414,86.2354071 L131.992171,86.1941171 C131.703738,86.1191876 131.409462,86.0685428 131.112467,86.0427202 C129.671691,85.9257317 128.223989,85.8087433 126.762432,85.7055181 C116.545394,84.9760605 105.822698,84.583805 94.7536619,84.583805 C83.6846259,84.583805 72.9619301,84.9760605 62.7448913,85.7055181 C61.2833352,85.8087433 59.8356327,85.9257317 58.3948571,86.0427202 C58.0978618,86.0685428 57.8035855,86.1191876 57.5151527,86.1941171 L57.3489094,86.2354071 C57.0796745,86.3119259 56.8158714,86.4061843 56.5592535,86.5175558 L56.4276442,86.5863726 C56.1869415,86.6965968 55.9553343,86.8254518 55.7349636,86.9717464 L55.6656955,87.0199182 C55.4381702,87.1752498 55.2249175,87.3502673 55.0284294,87.5429255 L54.9037469,87.6530323 C54.7130032,87.8481135 54.5348602,88.0549761 54.3703828,88.2723831 L54.3218952,88.3480816 C54.1676882,88.5664519 54.0310383,88.7965531 53.9132136,89.0362491 L53.8508724,89.1463559 C53.7309066,89.3909943 53.6290437,89.6439923 53.5460929,89.9033403 L53.5045321,90.0547371 C53.4239964,90.327527 53.3638011,90.6058413 53.3244351,90.8874199 L53.3244351,90.8874199 C38.438729,92.4564419 26.7255,94.5071813 20.0272786,95.8146996 C19.3021501,95.9581177 18.6020514,96.2061927 17.9492368,96.5510389 C21.7157117,64.6407919 45.0745846,38.4306659 76.501528,30.8516817 C55.7834512,32.4344671 40.4821367,36.5290641 27.5359363,40.4172108 C-1.89672266,70.4054842 -7.55958911,116.224203 13.6961779,152.395837 L33.5691843,152.395837 C25.7086234,142.254069 20.5142052,130.327039 18.4548936,117.691546 L18.6003565,117.794772 L19.2930372,118.180145 C19.7264712,118.412366 20.1754634,118.614706 20.6368375,118.785733 C20.940218,118.898312 21.2501827,118.992534 21.5650295,119.067882 C22.2089501,119.234989 22.8678651,119.338714 23.5322424,119.377557 L59.2607078,121.44206 L64.8714207,152.4096 L124.774439,152.4096 L130.385152,121.44206 L166.113617,119.377557 C166.447849,119.358633 166.780816,119.321877 167.111077,119.26745 C168.561729,119.043524 169.9451,118.505527 171.163259,117.691546 C169.103947,130.327039 163.909529,142.254069 156.048968,152.395837 L175.928902,152.395837 Z" id="Path" fill="#202124" fill-rule="nonzero"></path>
                                <path d="M11.7936,91.6272 C11.7936,63.5691567 48.5513932,40.824 93.8952,40.824 C139.239007,40.824 175.9968,63.5691567 175.9968,91.6272 L11.7936,91.6272 Z" id="Path" fill="#202124" fill-rule="nonzero"></path>
                                <circle id="Oval" fill="#313337" fill-rule="nonzero" cx="59.8752" cy="70.7616" r="17.2368"></circle>
                                <circle id="Oval" fill="#313337" fill-rule="nonzero" cx="128.8224" cy="70.7616" r="17.2368"></circle>
                                <path d="M122.815426,177.810743 L64.084562,177.810743 C55.2655785,177.851761 46.6543243,175.129281 39.455935,170.023842 C6.47078851,146.628115 -7.76338194,104.633298 4.17905004,65.9470837 C16.121482,27.2608692 51.5328976,0.654294891 91.9400079,0.00737443295 C116.908387,-0.305891633 140.970262,9.37272926 158.792488,26.8980385 C176.614713,44.4233478 186.725172,68.3477538 186.883076,93.3685794 C186.932369,123.75881 172.284891,152.289593 147.581951,169.920208 C140.352984,175.080736 131.691218,177.840183 122.815426,177.810743 Z M93.4430988,16.4991376 L92.2020146,16.4991376 C58.9156766,17.0380378 29.7478917,38.9596292 19.9129349,70.8293404 C10.0779781,102.699052 21.8053095,137.292423 48.9778089,156.565127 C53.3965034,159.686575 58.6783209,161.346099 64.084562,161.312131 L122.815426,161.312131 C128.265409,161.332717 133.584882,159.641314 138.025602,156.47531 C158.387719,141.957264 170.46607,118.451664 170.431764,93.4100333 C170.111209,50.9755132 135.791925,16.6908638 93.4430988,16.4991376 Z" id="Shape" fill="#464A4D" fill-rule="nonzero"></path>
                                <path d="M68.9472,160.5744 L69.4798483,163.842442 C70.5284898,170.326648 76.0091762,175.084273 82.4363446,175.0896 L105.354055,175.0896 C111.767532,175.08371 117.24035,170.345326 118.303634,163.877811 L118.8432,160.609768 L68.9472,160.5744 Z" id="Path" fill="#303437" fill-rule="nonzero"></path>
                                <path d="M62.5968,91.6272 L74.229093,162.987972 C74.9405183,167.348419 78.7300662,170.552743 83.1764743,170.5536 L104.613926,170.5536 C109.060334,170.552743 112.849882,167.348419 113.561307,162.987972 L125.1936,91.6272 L62.5968,91.6272 L62.5968,91.6272 Z M83.8668802,132.690821 L103.92352,132.690821 L101.37111,155.290709 C101.18658,156.916224 99.8027689,158.144868 98.1561898,158.145143 L89.6272364,158.145143 C87.9808885,158.147666 86.5974643,156.916695 86.4192898,155.290709 L83.8668802,132.690821 Z" id="Shape" fill="#4D5256" fill-rule="nonzero"></path>
                                <polygon id="Path" fill="#3C4043" fill-rule="nonzero" points="62.5968 91.6272 71.9626091 148.7808 85.7219102 148.7808 83.8668802 132.469904 103.92352 132.469904 102.06849 148.7808 115.827791 148.7808 125.1936 91.6272 93.8952 91.6272"></polygon>
                                <path d="M168.890995,83.7381571 C162.215574,82.428592 150.523223,80.3922525 135.672831,78.829002 C135.353109,76.2437285 133.245014,74.2380672 130.628259,74.0295487 C119.150129,73.0833708 106.974052,72.576 94.3557104,72.576 C81.7373691,72.576 69.5612916,73.0833708 58.0900723,74.0295487 C55.4706409,74.2349684 53.3588703,76.2413781 53.0385895,78.829002 C38.195108,80.3922525 26.5027567,82.428592 19.8273363,83.7381571 C16.2147191,84.4342779 13.608,87.5739524 13.608,91.2253042 L13.608,97.1012063 C13.608,102.482665 17.8524292,106.923098 23.2687021,107.207484 L58.9124067,109.264392 L63.0724513,130.07345 C64.0966293,135.148335 68.5878681,138.8016 73.8042607,138.8016 L114.90716,138.8016 C120.124518,138.803726 124.617251,135.1498 125.638969,130.07345 L129.833566,109.257536 L165.477271,107.200627 C170.874474,106.89173 175.091246,102.458271 175.0896,97.09435 L175.0896,91.2184479 C175.0896,87.576047 172.492818,84.4423983 168.890995,83.7381571 Z" id="Path" fill="#5F6369" fill-rule="nonzero"></path>
                                <path d="M58.8877998,109.059566 L63.0820373,130.012925 C64.1061278,135.123001 68.5969822,138.801042 73.8129284,138.8016 L114.91231,138.8016 C120.129222,138.803741 124.62157,135.124477 125.643201,130.012925 L129.837439,109.052662 L165.478093,106.98149 C170.874835,106.67045 175.091246,102.206248 175.0896,96.8051305 L175.0896,91.6272 C175.0896,91.6272 140.160653,103.039359 94.3626193,103.039359 C48.5645859,103.039359 13.608,91.6341039 13.608,91.6341039 L13.608,96.8120344 C13.608,102.235875 17.8604396,106.709118 23.2816945,106.988394 L58.8877998,109.059566 Z" id="Path" fill="#4D5256" fill-rule="nonzero"></path>
                                <rect id="Rectangle" fill="#80868C" fill-rule="nonzero" x="151.5024" y="88.9056" width="18.144" height="7.2576" rx="3.1752"></rect>
                                <path d="M52.7339603,80.6160153 L62.6779454,130.07616 C63.6999885,135.149469 68.1818646,138.8016 73.3873829,138.8016 L114.404597,138.8016 C119.611079,138.803725 124.094446,135.150934 125.114035,130.07616 L135.064916,80.6091611 C135.374988,79.0685332 135.009567,77.469582 134.060294,76.2132889 C133.11102,74.9569957 131.667932,74.1625196 130.092923,74.0290974 C118.638721,73.0832132 106.488027,72.576 93.8959901,72.576 C81.3039536,72.576 69.1532589,73.0832132 57.7059529,74.0290974 C56.124878,74.1515174 54.6732723,74.9443032 53.7215422,76.2051594 C52.7698121,77.4660157 52.410015,79.0729845 52.7339603,80.6160153 Z" id="Path" fill="#80868C" fill-rule="nonzero"></path>
                                <path d="M93.4381614,97.9776 C77.0770978,97.9776 57.1536,104.06454 57.1536,104.06454 L62.3046873,129.996287 C63.3239616,135.116037 67.7936961,138.80104 72.9851126,138.8016 L113.89121,138.8016 C119.085212,138.804338 123.558731,135.118587 124.578513,129.996287 L129.7296,104.057623 C129.7296,104.057623 109.799225,97.9776 93.4381614,97.9776 Z" id="Path" fill="#5F6369" fill-rule="nonzero" opacity="0.509184338"></path>
                            </g>
                        </g>
                    </g>
                </g>
                <polygon id="Rectangle" fill="#000000" opacity="0.0993303571" transform="translate(249.157500, 136.800000) scale(-1, 1) translate(-249.157500, -136.800000) " points="196.635 85.44 309.195 85.44 309.195 188.16 189.12 188.16"></polygon>
                <polygon id="Path" fill="url(#linearGradient-4)" fill-rule="nonzero" transform="translate(42.240000, 135.360000) rotate(-180.000000) translate(-42.240000, -135.360000) " points="83.6524162 19.2 0 19.2 0 251.52 84.48 251.52 84.48 19.2"></polygon>
                <path d="M190.08,60.48 L286.08,60.48 C291.381934,60.48 295.68,64.7780664 295.68,70.08 L295.68,199.68 C295.68,204.981934 291.381934,209.28 286.08,209.28 L190.08,209.28 C184.778066,209.28 180.48,204.981934 180.48,199.68 L180.48,70.08 C180.48,64.7780664 184.778066,60.48 190.08,60.48 Z" id="Rectangle" fill="#3C4043"></path>
                <path d="M188.16,60.48 L288,60.48 C292.241547,60.48 295.68,63.9184531 295.68,68.16 L295.68,68.16 L295.68,68.16 L180.48,68.16 C180.48,63.9184531 183.918453,60.48 188.16,60.48 Z" id="Rectangle" fill="#4D5256"></path>
                <path d="M180.48,202.04625 L295.68,202.04625 C295.68,206.287797 292.241547,209.72625 288,209.72625 L188.16,209.72625 C183.918453,209.72625 180.48,206.287797 180.48,202.04625 L180.48,202.04625 L180.48,202.04625 Z" id="Rectangle" fill="#2E3234"></path>
                <path d="M180.48,60.96 L231.48,60.96 C235.125079,60.96 238.08,63.9149206 238.08,67.5599999 L238.08,124.32 L238.08,124.32 L180.48,60.96 Z" id="Rectangle" fill="#FFFFFF" opacity="0.05" transform="translate(209.280000, 92.640000) scale(-1, 1) translate(-209.280000, -92.640000) "></path>
            </g>
            <rect id="Rectangle" fill="#8AB4F8" x="189" y="75" width="99" height="29" rx="2"></rect>
            <rect id="Rectangle" fill="#D2E3FC" x="196" y="91" width="57" height="6" rx="3"></rect>
            <rect id="Rectangle" fill="#D2E3FC" x="196" y="82" width="33" height="6" rx="3"></rect>
        </g>
    </g>
</svg>
