<?xml version="1.0" encoding="UTF-8"?>
<svg width="360px" height="179px" viewBox="0 0 360 179" version="1.1" xmlns="http://www.w3.org/2000/svg" xmlns:xlink="http://www.w3.org/1999/xlink">
    <!-- Generator: Sketch 61 (89581) - https://sketch.com -->
    <title>ill_msgSync</title>
    <desc>Created with Sketch.</desc>
    <defs>
        <rect id="path-1" x="0" y="0" width="360" height="178.56"></rect>
        <filter x="-65.7%" y="-65.7%" width="231.4%" height="231.4%" filterUnits="objectBoundingBox" id="filter-3">
            <feOffset dx="0" dy="0" in="SourceAlpha" result="shadowOffsetOuter1"></feOffset>
            <feGaussianBlur stdDeviation="6" in="shadowOffsetOuter1" result="shadowBlurOuter1"></feGaussianBlur>
            <feColorMatrix values="0 0 0 0 0.125490196   0 0 0 0 0.129411765   0 0 0 0 0.141176471  0 0 0 1 0" type="matrix" in="shadowBlurOuter1" result="shadowMatrixOuter1"></feColorMatrix>
            <feMerge>
                <feMergeNode in="shadowMatrixOuter1"></feMergeNode>
                <feMergeNode in="SourceGraphic"></feMergeNode>
            </feMerge>
        </filter>
        <circle id="path-4" cx="17.28" cy="17.28" r="17.28"></circle>
        <filter x="-59.0%" y="-59.0%" width="217.9%" height="217.9%" filterUnits="objectBoundingBox" id="filter-6">
            <feOffset dx="0" dy="0" in="SourceAlpha" result="shadowOffsetOuter1"></feOffset>
            <feGaussianBlur stdDeviation="6" in="shadowOffsetOuter1" result="shadowBlurOuter1"></feGaussianBlur>
            <feColorMatrix values="0 0 0 0 0.125490196   0 0 0 0 0.129411765   0 0 0 0 0.141176471  0 0 0 1 0" type="matrix" in="shadowBlurOuter1" result="shadowMatrixOuter1"></feColorMatrix>
            <feMerge>
                <feMergeNode in="shadowMatrixOuter1"></feMergeNode>
                <feMergeNode in="SourceGraphic"></feMergeNode>
            </feMerge>
        </filter>
        <circle id="path-7" cx="19.2" cy="19.2" r="19.2"></circle>
        <circle id="path-9" cx="31.70112" cy="69.42144" r="15.64992"></circle>
        <filter x="-49.5%" y="-36.7%" width="199.0%" height="199.0%" filterUnits="objectBoundingBox" id="filter-10">
            <feOffset dx="0" dy="4" in="SourceAlpha" result="shadowOffsetOuter1"></feOffset>
            <feGaussianBlur stdDeviation="4.5" in="shadowOffsetOuter1" result="shadowBlurOuter1"></feGaussianBlur>
            <feComposite in="shadowBlurOuter1" in2="SourceAlpha" operator="out" result="shadowBlurOuter1"></feComposite>
            <feColorMatrix values="0 0 0 0 0   0 0 0 0 0   0 0 0 0 0  0 0 0 0.1 0" type="matrix" in="shadowBlurOuter1"></feColorMatrix>
        </filter>
        <circle id="path-11" cx="119.98272" cy="69.42144" r="15.64992"></circle>
        <filter x="-49.5%" y="-36.7%" width="199.0%" height="199.0%" filterUnits="objectBoundingBox" id="filter-12">
            <feOffset dx="0" dy="4" in="SourceAlpha" result="shadowOffsetOuter1"></feOffset>
            <feGaussianBlur stdDeviation="4.5" in="shadowOffsetOuter1" result="shadowBlurOuter1"></feGaussianBlur>
            <feComposite in="shadowBlurOuter1" in2="SourceAlpha" operator="out" result="shadowBlurOuter1"></feComposite>
            <feColorMatrix values="0 0 0 0 0   0 0 0 0 0   0 0 0 0 0  0 0 0 0.1 0" type="matrix" in="shadowBlurOuter1"></feColorMatrix>
        </filter>
        <path d="M0.5595975,36.91776 L15.6141952,14.2120676 C19.8804683,7.77757471 26.6727817,3.45145312 34.3076718,2.30592412 C52.3126796,-0.39552385 65.64804,0.0726700983 74.3137532,3.71050597 C90.9263086,10.6843982 100.879597,34.9299277 100.879597,34.9299277 C100.879597,34.9299277 67.4395975,35.5925385 0.5595975,36.91776 Z" id="path-13"></path>
    </defs>
    <g id="ill_msgSync" stroke="none" stroke-width="1" fill="none" fill-rule="evenodd">
        <g id="Group-7">
            <mask id="mask-2" fill="white">
                <use xlink:href="#path-1"></use>
            </mask>
            <use id="Mask" fill="#202124" xlink:href="#path-1"></use>
            <g mask="url(#mask-2)">
                <g transform="translate(108.480000, 0.000000)">
                    <g id="Group-6" stroke-width="1" fill="none">
                        <g id="Group-5">
                            <g id="Group-3" transform="translate(77.760000, 36.480000)">
                                <path d="M3.84,16.32 L62.4,16.32 C64.5207734,16.32 66.24,18.0392266 66.24,20.16 L66.24,48.96 C66.24,51.0807734 64.5207734,52.8 62.4,52.8 L27.9806897,52.8 L27.9806897,52.8 L11.4206897,52.8 L3.84,52.8 C1.71922656,52.8 2.5971984e-16,51.0807734 0,48.96 L0,20.16 C-2.5971984e-16,18.0392266 1.71922656,16.32 3.84,16.32 Z" id="Rectangle" fill="#3C4043"></path>
                                <path d="M15.36,25.92 L45.12,25.92 C46.7105801,25.92 48,27.2094199 48,28.8 C48,30.3905801 46.7105801,31.68 45.12,31.68 L15.36,31.68 C13.7694199,31.68 12.48,30.3905801 12.48,28.8 C12.48,27.2094199 13.7694199,25.92 15.36,25.92 Z" id="Rectangle" fill="#4D5256"></path>
                                <path d="M15.36,37.44 L38.4,37.44 C39.9905801,37.44 41.28,38.7294199 41.28,40.32 C41.28,41.9105801 39.9905801,43.2 38.4,43.2 L15.36,43.2 C13.7694199,43.2 12.48,41.9105801 12.48,40.32 C12.48,38.7294199 13.7694199,37.44 15.36,37.44 Z" id="Rectangle" fill="#4D5256"></path>
                                <rect id="Rectangle" fill="#80868C" x="46.08" y="37.44" width="7.68" height="5.76" rx="2.88"></rect>
                                <polygon id="Rectangle" fill="#3C4043" points="49.92 45.12 66.24 45.12 66.24 61.44"></polygon>
                                <g id="Group-8" filter="url(#filter-3)" transform="translate(55.680000, 0.000000)">
                                    <g id="Rectangle-+-Oval-Mask">
                                        <mask id="mask-5" fill="white">
                                            <use xlink:href="#path-4"></use>
                                        </mask>
                                        <use id="Mask" fill="#464A4D" xlink:href="#path-4"></use>
                                        <path d="M17.28,19.872 C24.0286041,19.872 29.4994286,25.3428245 29.4994286,32.0914286 L29.4994286,43.2 L29.4994286,43.2 L5.06057143,43.2 L5.06057143,32.0914286 C5.06057143,25.3428245 10.5313959,19.872 17.28,19.872 Z" id="Rectangle" fill="#5F6369" mask="url(#mask-5)"></path>
                                        <circle id="Oval" fill="#5F6369" mask="url(#mask-5)" cx="17.712" cy="10.8" r="6.48"></circle>
                                    </g>
                                </g>
                            </g>
                            <g id="Group-4" transform="translate(7.680000, 0.000000)">
                                <path d="M20.16,10.56 L78.72,10.56 C80.8407734,10.56 82.56,12.2792266 82.56,14.4 L82.56,43.2 C82.56,45.3207734 80.8407734,47.04 78.72,47.04 L44.3006897,47.04 L44.3006897,47.04 L27.7406897,47.04 L20.16,47.04 C18.0392266,47.04 16.32,45.3207734 16.32,43.2 L16.32,14.4 C16.32,12.2792266 18.0392266,10.56 20.16,10.56 Z" id="Rectangle" fill="#35393C"></path>
                                <circle id="Oval" fill="#4D5256" cx="11.52" cy="11.52" r="11.52"></circle>
                            </g>
                            <g id="Group" transform="translate(0.000000, 99.840000)">
                                <path d="M27.84,0 L101.76,0 C103.880773,-8.3366897e-16 105.6,1.71922656 105.6,3.84 L105.6,30.72 C105.6,32.8407734 103.880773,34.56 101.76,34.56 L58.4689655,34.56 L58.4689655,34.56 L38.0689655,34.56 L27.84,34.56 C25.7192266,34.56 24,32.8407734 24,30.72 L24,3.84 C24,1.71922656 25.7192266,-5.45094492e-17 27.84,0 Z" id="Rectangle" fill="#3C4043"></path>
                                <path d="M47.04,8.64 L84.48,8.64 C86.0705801,8.64 87.36,9.92941992 87.36,11.52 C87.36,13.1105801 86.0705801,14.4 84.48,14.4 L47.04,14.4 C45.4494199,14.4 44.16,13.1105801 44.16,11.52 C44.16,9.92941992 45.4494199,8.64 47.04,8.64 Z" id="Rectangle" fill="#80868C"></path>
                                <path d="M47.04,20.16 L64.32,20.16 C65.9105801,20.16 67.2,21.4494199 67.2,23.04 C67.2,24.6305801 65.9105801,25.92 64.32,25.92 L47.04,25.92 C45.4494199,25.92 44.16,24.6305801 44.16,23.04 C44.16,21.4494199 45.4494199,20.16 47.04,20.16 Z" id="Rectangle" fill="#4D5256"></path>
                                <g id="Group-8" filter="url(#filter-6)" transform="translate(0.000000, 13.440000)">
                                    <g id="Rectangle-+-Oval-Mask">
                                        <mask id="mask-8" fill="white">
                                            <use xlink:href="#path-7"></use>
                                        </mask>
                                        <use id="Mask" fill="#5F6369" xlink:href="#path-7"></use>
                                        <path d="M19.2,22.08 C26.6984489,22.08 32.7771429,28.1586939 32.7771429,35.6571429 L32.7771429,48 L32.7771429,48 L5.62285714,48 L5.62285714,35.6571429 C5.62285714,28.1586939 11.7015511,22.08 19.2,22.08 Z" id="Rectangle" fill="#464A4D" mask="url(#mask-8)"></path>
                                        <path d="M19.68,4.8 C23.6564502,4.8 26.88,8.0235498 26.88,12 C26.88,12.1616278 26.8746743,12.3220118 26.8641889,12.4809859 L26.88,12.48 L26.88,19.2 L19.728,19.199 L19.68,19.2 C19.663636,19.2 19.6472848,19.1999454 19.6309464,19.1998364 L12.48,19.2 L12.48,12.48 L12.4958111,12.4809859 C12.4853257,12.3220118 12.48,12.1616278 12.48,12 C12.48,8.0235498 15.7035498,4.8 19.68,4.8 Z" id="Combined-Shape" fill="#464A4D" mask="url(#mask-8)"></path>
                                    </g>
                                </g>
                            </g>
                        </g>
                        <g id="Group-2" opacity="0.3" transform="translate(141.120000, 82.560000)">
                            <path d="M9.38516203,75.9198742 L140.086903,75.9198742 C148.054782,53.186744 146.622629,39.5091807 135.790446,34.8871844 C124.575789,30.10199 101.130286,31.2768134 77.752191,31.8805229 C20.502911,33.3589126 -2.28609863,48.0386963 9.38516203,75.9198742 Z" id="Path-3" fill="#5F6369"></path>
                            <path d="M144.841449,56.9818514 C144.212099,62.3887397 142.62725,68.7161122 140.086903,75.963969 L140.086903,75.963969 L9.38516203,75.963969 C6.3668597,68.7536233 5.65322669,62.426174 7.24426299,56.9816211 Z" id="Combined-Shape" fill="#464A4D"></path>
                            <ellipse id="Oval" fill="#17181B" opacity="0.5" cx="75.44064" cy="88.68288" rx="75.44064" ry="6.82176"></ellipse>
                            <g id="Oval">
                                <use fill="black" fill-opacity="1" filter="url(#filter-10)" xlink:href="#path-9"></use>
                                <circle stroke="#272A2D" stroke-width="6.42048" stroke-linejoin="square" fill="#5F6369" fill-rule="evenodd" cx="31.70112" cy="69.42144" r="12.43968"></circle>
                            </g>
                            <g id="Oval">
                                <use fill="black" fill-opacity="1" filter="url(#filter-12)" xlink:href="#path-11"></use>
                                <circle stroke="#272A2D" stroke-width="6.42048" stroke-linejoin="square" fill="#5F6369" fill-rule="evenodd" cx="119.98272" cy="69.42144" r="12.43968"></circle>
                            </g>
                            <rect id="Rectangle" fill="#80868C" x="3.21024" y="54.7629176" width="12.84096" height="6.04280471" rx="3.02140235"></rect>
                            <g id="Combined-Shape" transform="translate(34.510080, 0.000000)">
                                <mask id="mask-14" fill="white">
                                    <use xlink:href="#path-13"></use>
                                </mask>
                                <use id="Mask" fill="#4D5256" xlink:href="#path-13"></use>
                                <path d="M31.3785024,9.38851305 L13.3929493,40.1263609 L5.61792,40.1263609 L23.9768414,12.515752 C25.0312437,10.9300004 26.7351709,9.89412626 28.6282842,9.68798481 L31.3785024,9.38851305 L31.3785024,9.38851305 Z" id="Path-4" fill="#3C4043" mask="url(#mask-14)"></path>
                                <path d="M18.4982112,40.1263609 L73.03296,40.1263609 L73.03296,28.0896 C73.03296,17.4518004 64.4093196,8.82816 53.77152,8.82816 C53.5737433,8.82816 53.3759783,8.83120616 53.1782955,8.8372974 L35.2893348,9.38851305 L35.2893348,9.38851305 L18.4982112,40.1263609 Z" id="Path-2" fill="#3C4043" mask="url(#mask-14)"></path>
                                <path d="M22.38592,24.5573466 L13.3929493,39.9271207 L5.61792,39.9271207 L15.15192,25.5883466 L22.38592,24.5573466 Z M73.0300401,27.5515474 L73.03296,27.8903598 L73.03296,39.9271207 L18.4982112,39.9271207 L27.27392,23.8613466 L70.1522557,17.7524771 C71.9229666,20.6075156 72.9680867,23.9597311 73.0300401,27.5515474 Z" fill="#272A2D" opacity="0.3" mask="url(#mask-14)"></path>
                            </g>
                        </g>
                    </g>
                    <path d="M39.36,20.16 L52.8,20.16 C54.3905801,20.16 55.68,21.4494199 55.68,23.04 C55.68,24.6305801 54.3905801,25.92 52.8,25.92 L39.36,25.92 C37.7694199,25.92 36.48,24.6305801 36.48,23.04 C36.48,21.4494199 37.7694199,20.16 39.36,20.16 Z" id="Rectangle" fill="#4D5256"></path>
                    <path d="M63.36,20.16 L74.88,20.16 C76.4705801,20.16 77.76,21.4494199 77.76,23.04 C77.76,24.6305801 76.4705801,25.92 74.88,25.92 L63.36,25.92 C61.7694199,25.92 60.48,24.6305801 60.48,23.04 C60.48,21.4494199 61.7694199,20.16 63.36,20.16 Z" id="Rectangle" fill="#4D5256"></path>
                    <path d="M39.36,31.68 L62.4,31.68 C63.9905801,31.68 65.28,32.9694199 65.28,34.56 C65.28,36.1505801 63.9905801,37.44 62.4,37.44 L39.36,37.44 C37.7694199,37.44 36.48,36.1505801 36.48,34.56 C36.48,32.9694199 37.7694199,31.68 39.36,31.68 Z" id="Rectangle" fill="#4D5256"></path>
                </g>
            </g>
        </g>
    </g>
</svg>
