<?xml version="1.0" encoding="UTF-8"?>
<svg width="360px" height="171px" viewBox="0 0 360 171" version="1.1" xmlns="http://www.w3.org/2000/svg" xmlns:xlink="http://www.w3.org/1999/xlink">
    <!-- Generator: Sketch 61 (89581) - https://sketch.com -->
    <title>ill_phoneUnlock</title>
    <desc>Created with Sketch.</desc>
    <defs>
        <rect id="path-1" x="0" y="0" width="360" height="170.88"></rect>
        <circle id="path-3" cx="31.70112" cy="69.42144" r="15.64992"></circle>
        <filter x="-49.5%" y="-36.7%" width="199.0%" height="199.0%" filterUnits="objectBoundingBox" id="filter-4">
            <feOffset dx="0" dy="4" in="SourceAlpha" result="shadowOffsetOuter1"></feOffset>
            <feGaussianBlur stdDeviation="4.5" in="shadowOffsetOuter1" result="shadowBlurOuter1"></feGaussianBlur>
            <feComposite in="shadowBlurOuter1" in2="SourceAlpha" operator="out" result="shadowBlurOuter1"></feComposite>
            <feColorMatrix values="0 0 0 0 0   0 0 0 0 0   0 0 0 0 0  0 0 0 0.1 0" type="matrix" in="shadowBlurOuter1"></feColorMatrix>
        </filter>
        <circle id="path-5" cx="119.98272" cy="69.42144" r="15.64992"></circle>
        <filter x="-49.5%" y="-36.7%" width="199.0%" height="199.0%" filterUnits="objectBoundingBox" id="filter-6">
            <feOffset dx="0" dy="4" in="SourceAlpha" result="shadowOffsetOuter1"></feOffset>
            <feGaussianBlur stdDeviation="4.5" in="shadowOffsetOuter1" result="shadowBlurOuter1"></feGaussianBlur>
            <feComposite in="shadowBlurOuter1" in2="SourceAlpha" operator="out" result="shadowBlurOuter1"></feComposite>
            <feColorMatrix values="0 0 0 0 0   0 0 0 0 0   0 0 0 0 0  0 0 0 0.1 0" type="matrix" in="shadowBlurOuter1"></feColorMatrix>
        </filter>
        <path d="M0.5595975,36.91776 L15.6141952,14.2120676 C19.8804683,7.77757471 26.6727817,3.45145312 34.3076718,2.30592412 C52.3126796,-0.39552385 65.64804,0.0726700983 74.3137532,3.71050597 C90.9263086,10.6843982 100.879597,34.9299277 100.879597,34.9299277 C100.879597,34.9299277 67.4395975,35.5925385 0.5595975,36.91776 Z" id="path-7"></path>
        <circle id="path-9" cx="23.04" cy="23.04" r="23.04"></circle>
        <filter x="-145.8%" y="-102.9%" width="391.7%" height="305.9%" filterUnits="objectBoundingBox" id="filter-11">
            <feOffset dx="0" dy="-6" in="SourceAlpha" result="shadowOffsetOuter1"></feOffset>
            <feGaussianBlur stdDeviation="6" in="shadowOffsetOuter1" result="shadowBlurOuter1"></feGaussianBlur>
            <feColorMatrix values="0 0 0 0 0.125490196   0 0 0 0 0.129411765   0 0 0 0 0.141176471  0 0 0 1 0" type="matrix" in="shadowBlurOuter1" result="shadowMatrixOuter1"></feColorMatrix>
            <feMerge>
                <feMergeNode in="shadowMatrixOuter1"></feMergeNode>
                <feMergeNode in="SourceGraphic"></feMergeNode>
            </feMerge>
        </filter>
    </defs>
    <g id="ill_phoneUnlock" stroke="none" stroke-width="1" fill="none" fill-rule="evenodd">
        <g id="Group-5">
            <mask id="mask-2" fill="white">
                <use xlink:href="#path-1"></use>
            </mask>
            <use id="Mask" fill="#202124" xlink:href="#path-1"></use>
            <g mask="url(#mask-2)">
                <g transform="translate(112.320000, 0.000000)">
                    <g id="Group-2" opacity="0.3" transform="translate(137.280000, 50.880000)">
                        <path d="M9.38516203,75.9198742 L140.086903,75.9198742 C148.054782,53.186744 146.622629,39.5091807 135.790446,34.8871844 C124.575789,30.10199 101.130286,31.2768134 77.752191,31.8805229 C20.502911,33.3589126 -2.28609863,48.0386963 9.38516203,75.9198742 Z" id="Path-3" fill="#5F6369"></path>
                        <path d="M144.841449,56.9818514 C144.212099,62.3887397 142.62725,68.7161122 140.086903,75.963969 L140.086903,75.963969 L9.38516203,75.963969 C6.3668597,68.7536233 5.65322669,62.426174 7.24426299,56.9816211 Z" id="Combined-Shape" fill="#464A4D"></path>
                        <ellipse id="Oval" fill="#17181B" opacity="0.5" cx="75.44064" cy="88.68288" rx="75.44064" ry="6.82176"></ellipse>
                        <g id="Oval">
                            <use fill="black" fill-opacity="1" filter="url(#filter-4)" xlink:href="#path-3"></use>
                            <circle stroke="#272A2D" stroke-width="6.42048" stroke-linejoin="square" fill="#5F6369" fill-rule="evenodd" cx="31.70112" cy="69.42144" r="12.43968"></circle>
                        </g>
                        <g id="Oval">
                            <use fill="black" fill-opacity="1" filter="url(#filter-6)" xlink:href="#path-5"></use>
                            <circle stroke="#272A2D" stroke-width="6.42048" stroke-linejoin="square" fill="#5F6369" fill-rule="evenodd" cx="119.98272" cy="69.42144" r="12.43968"></circle>
                        </g>
                        <rect id="Rectangle" fill="#80868C" x="3.21024" y="54.7629176" width="12.84096" height="6.04280471" rx="3.02140235"></rect>
                        <g id="Combined-Shape" transform="translate(34.510080, 0.000000)">
                            <mask id="mask-8" fill="white">
                                <use xlink:href="#path-7"></use>
                            </mask>
                            <use id="Mask" fill="#4D5256" xlink:href="#path-7"></use>
                            <path d="M31.3785024,9.38851305 L13.3929493,40.1263609 L5.61792,40.1263609 L23.9768414,12.515752 C25.0312437,10.9300004 26.7351709,9.89412626 28.6282842,9.68798481 L31.3785024,9.38851305 L31.3785024,9.38851305 Z" id="Path-4" fill="#3C4043" mask="url(#mask-8)"></path>
                            <path d="M18.4982112,40.1263609 L73.03296,40.1263609 L73.03296,28.0896 C73.03296,17.4518004 64.4093196,8.82816 53.77152,8.82816 C53.5737433,8.82816 53.3759783,8.83120616 53.1782955,8.8372974 L35.2893348,9.38851305 L35.2893348,9.38851305 L18.4982112,40.1263609 Z" id="Path-2" fill="#3C4043" mask="url(#mask-8)"></path>
                            <path d="M22.38592,24.5573466 L13.3929493,39.9271207 L5.61792,39.9271207 L15.15192,25.5883466 L22.38592,24.5573466 Z M73.0300401,27.5515474 L73.03296,27.8903598 L73.03296,39.9271207 L18.4982112,39.9271207 L27.27392,23.8613466 L70.1522557,17.7524771 C71.9229666,20.6075156 72.9680867,23.9597311 73.0300401,27.5515474 Z" fill="#272A2D" opacity="0.3" mask="url(#mask-8)"></path>
                        </g>
                    </g>
                    <g id="Group-4" transform="translate(74.880000, 0.000000)">
                        <g id="Group-8" transform="translate(5.760000, 0.000000)">
                            <g id="Rectangle-+-Oval-Mask">
                                <mask id="mask-10" fill="white">
                                    <use xlink:href="#path-9"></use>
                                </mask>
                                <use id="Mask" fill="#4D5256" xlink:href="#path-9"></use>
                                <path d="M23.04,26.496 C32.0381387,26.496 39.3325714,33.7904327 39.3325714,42.7885714 L39.3325714,57.6 L39.3325714,57.6 L6.74742857,57.6 L6.74742857,42.7885714 C6.74742857,33.7904327 14.0418613,26.496 23.04,26.496 Z" id="Rectangle" fill="#2E3234" mask="url(#mask-10)"></path>
                                <circle id="Oval" fill="#2E3234" mask="url(#mask-10)" cx="23.616" cy="14.4" r="8.64"></circle>
                            </g>
                        </g>
                        <g id="Group" filter="url(#filter-11)" transform="translate(50.208000, 38.040000) scale(-1, 1) translate(-50.208000, -38.040000) translate(38.208000, 21.040000)">
                            <path d="M11.52,0.272 C16.2065306,0.272 20.0215598,4.00334113 20.1563164,8.65725224 L20.16,8.912 L20.16,15.824 C20.16,16.778348 19.386348,17.552 18.432,17.552 C17.5253694,17.552 16.7818169,16.8537791 16.7097283,15.9657229 L16.704,15.824 L16.704,8.912 C16.704,6.04895586 14.3830441,3.728 11.52,3.728 C8.65695586,3.728 6.336,6.04895586 6.336,8.912 C6.336,9.86634805 5.56234805,10.64 4.608,10.64 C3.65365195,10.64 2.88,9.86634805 2.88,8.912 C2.88,4.14025976 6.74825976,0.272 11.52,0.272 Z" id="Path" fill="#9AA0A7" fill-rule="nonzero"></path>
                            <rect id="Rectangle" fill="#464A4D" x="0" y="14.672" width="23.04" height="18.432" rx="2.304"></rect>
                        </g>
                        <circle id="Oval" fill="#4D5256" cx="4.608" cy="49.536" r="4.608"></circle>
                    </g>
                    <g id="Group-9" transform="translate(0.000000, 40.320000)">
                        <g id="Group-2" transform="translate(44.944487, 50.495761) rotate(-15.000000) translate(-44.944487, -50.495761) translate(29.444487, 32.495761)">
                            <g id="Group-3" transform="translate(1.050624, 0.000000)">
                                <rect id="Rectangle" fill="#656565" x="0" y="0" width="8.404992" height="28.366848" rx="4.202496"></rect>
                                <path d="M4.202496,0 C6.52347045,-4.2635609e-16 8.404992,1.88152155 8.404992,4.202496 L8.404992,18.911232 L8.404992,18.911232 L0,18.911232 L0,4.202496 C-2.84237393e-16,1.88152155 1.88152155,4.2635609e-16 4.202496,0 Z" id="Rectangle" fill="#484747"></path>
                            </g>
                            <g id="Group-3" transform="translate(0.000000, 18.911232)" fill="#80868C">
                                <path d="M15.5565684,-6.00643593 C17.8775429,-6.00643593 19.7590644,-4.12491438 19.7590644,-1.80393993 L19.7590644,18.1579161 C19.7590644,20.4788905 17.8775429,22.3604121 15.5565684,22.3604121 C13.235594,22.3604121 11.3540724,20.4788905 11.3540724,18.1579161 L11.3540724,-1.80393993 C11.3540724,-4.12491438 13.235594,-6.00643593 15.5565684,-6.00643593 Z" id="Rectangle" transform="translate(15.556568, 8.176988) rotate(-254.000000) translate(-15.556568, -8.176988) "></path>
                            </g>
                        </g>
                        <ellipse id="Oval" fill="#17181B" opacity="0.5" cx="29.417472" cy="124.498944" rx="29.417472" ry="5.778432"></ellipse>
                        <rect id="Rectangle" fill="#5F6369" x="13.658112" y="27.316224" width="31.51872" height="79.847424" rx="15.75936"></rect>
                        <rect id="Rectangle" fill="#2E3234" x="13.658112" y="79.847424" width="8.404992" height="44.126208" rx="4.202496"></rect>
                        <rect id="Rectangle" fill="#2E3234" x="36.77184" y="79.847424" width="8.404992" height="44.126208" rx="4.202496"></rect>
                        <rect id="Rectangle" fill="#2E3234" x="13.658112" y="71.442432" width="31.51872" height="35.721216"></rect>
                        <ellipse id="Oval" fill="#80868C" cx="32.39424" cy="11.031552" rx="10.50624" ry="11.031552"></ellipse>
                        <rect id="Rectangle" fill="#2E3234" transform="translate(61.986816, 58.463218) rotate(17.000000) translate(-61.986816, -58.463218) " x="54.632448" y="43.7544824" width="14.708736" height="29.417472" rx="1.050624"></rect>
                        <g id="Group-3" transform="translate(38.057257, 62.117828) scale(-1, 1) rotate(-21.000000) translate(-38.057257, -62.117828) translate(22.557257, 39.117828)">
                            <g id="Group-8" transform="translate(23.906588, 15.647566) rotate(7.000000) translate(-23.906588, -15.647566) translate(19.406588, 1.147566)">
                                <rect id="Rectangle" fill="#80868C" x="-1.20375262e-13" y="5.97210601e-14" width="8.404992" height="28.366848" rx="4.202496"></rect>
                                <path d="M4.202496,1.7916318e-13 C6.52347045,1.78736824e-13 8.404992,1.88152155 8.404992,4.202496 L8.404992,18.911232 L8.404992,18.911232 L3.58326361e-13,18.911232 L3.58326361e-13,4.202496 C3.58042123e-13,1.88152155 1.88152155,1.79589536e-13 4.202496,1.7916318e-13 Z" id="Rectangle" fill="#464A4D"></path>
                            </g>
                            <rect id="Rectangle" fill="#80868C" transform="translate(14.506992, 32.672686) rotate(49.000000) translate(-14.506992, -32.672686) " x="10.3044958" y="17.9639503" width="8.404992" height="29.417472" rx="4.202496"></rect>
                        </g>
                        <polygon id="Path-12" fill="#2E3234" points="36.3610334 84.523932 44.7660254 75.024198 44.7660254 89.30304"></polygon>
                    </g>
                </g>
            </g>
        </g>
    </g>
</svg>
